# xmcd CD database file generated by RipIT.
#
# Track frame offsets:
#	150
#	12155
#	29400
#	45902
#	56872
#	69685
#	88397
#	99875
#	107367
#	121982
#	139730
#	154135
#	170979
#	191509
#	212126
#	238276
#	261076
#	278286
#	297506
#	317211
#
# Disc length: 4484 seconds
#
# Revision: 1
# Processed by: cddbd v1.5.1PL2 Copyright (c) Steve Scherf et al.
# Submitted via: RipIT 3.4 www.suwald.com/ripit/ripit.html at Tue Jan 3 12:11:47 CET 2006.
#
DISCID=27118214
DTITLE=Enya - A Day Without Rain
DYEAR=2000
DGENRE=Celtic
TTITLE0=A Day Without Rain
TTITLE1=Wild Child
TTITLE2=Only Time
TTITLE3=Tinpus Vernum
TTITLE4=Deora Ar Mo Chroí
TTITLE5=Flora's Secret
TTITLE6=Fallin Embers
TTITLE7=Silver Inches
TTITLE8=Pilgrim
TTITLE9=One By One
TTITLE10=The First Of Autumn
TTITLE11=Lazy Days
TTITLE12=The Power Of The Dream
TTITLE13=Where Does My Heart Beat Now
TTITLE14=Us
TTITLE15=The Reason
TTITLE16=Seduces Me
TTITLE17=With This Tear
TTITLE18=Falling Into You
TTITLE19=Pour que tu m'aimes encore
EXTD=ID3G: 88 YEAR: 2000
EXTT0=
EXTT1=
EXTT2=
EXTT3=
EXTT4=
EXTT5=
EXTT6=
EXTT7=
EXTT8=
EXTT9=
EXTT10=
EXTT11=
EXTT12=
EXTT13=
EXTT14=
EXTT15=
EXTT16=
EXTT17=
EXTT18=
EXTT19=
PLAYORDER=
